<svg width="110" height="32" viewBox="0 0 110 32" fill="none" xmlns="http://www.w3.org/2000/svg">
<rect width="110" height="32" fill="#1E1E1E"/>
<rect width="1680" height="920" transform="translate(-940 -35)" fill="white"/>
<mask id="path-1-outside-1_0_1" maskUnits="userSpaceOnUse" x="30.5339" y="12.3157" width="17" height="15" fill="black">
<rect fill="white" x="30.5339" y="12.3157" width="17" height="15"/>
<path d="M39.0162 26.9094L31.5339 13.3157H35.3229L40.2577 23.5904L38.2836 23.4954L42.7729 13.3157H46.3392L39.1754 26.9094H39.0162Z"/>
</mask>
<path d="M39.0162 26.9094L31.5339 13.3157H35.3229L40.2577 23.5904L38.2836 23.4954L42.7729 13.3157H46.3392L39.1754 26.9094H39.0162Z" fill="#202123"/>
<path d="M39.0162 26.9094L31.5339 13.3157H35.3229L40.2577 23.5904L38.2836 23.4954L42.7729 13.3157H46.3392L39.1754 26.9094H39.0162Z" stroke="#202123" stroke-width="0.8" mask="url(#path-1-outside-1_0_1)"/>
<mask id="path-2-outside-2_0_1" maskUnits="userSpaceOnUse" x="46.2632" y="11.7783" width="17" height="16" fill="black">
<rect fill="white" x="46.2632" y="11.7783" width="17" height="16"/>
<path d="M47.2632 19.7963C47.2632 18.4686 47.5816 17.2722 48.2185 16.2083C48.8554 15.1443 49.7355 14.3068 50.8608 13.6949C51.986 13.0838 53.2696 12.7783 54.7133 12.7783C56.1569 12.7783 57.4566 13.0838 58.5496 13.6949C59.6427 14.3068 60.4915 15.1443 61.0971 16.2083C61.7018 17.2731 62.005 18.4686 62.005 19.7963C62.005 21.1241 61.6973 22.3204 61.0819 23.3843C60.4656 24.4492 59.6114 25.292 58.5183 25.9137C57.4253 26.5354 56.1355 26.8463 54.6497 26.8463C53.249 26.8463 51.9914 26.5621 50.8769 25.9928C49.7624 25.4235 48.8813 24.6073 48.2346 23.5424C47.587 22.4785 47.2632 21.2297 47.2632 19.7963V19.7963ZM50.511 19.8283C50.511 20.6507 50.6908 21.3932 51.0522 22.0575C51.4127 22.7218 51.9064 23.2485 52.5325 23.6384C53.1587 24.0282 53.8537 24.2236 54.6184 24.2236C55.8287 24.2236 56.8206 23.8027 57.5952 22.9589C58.3698 22.1161 58.7572 21.0725 58.7572 19.8292C58.7572 18.5858 58.3698 17.5369 57.5952 16.6834C56.8197 15.8299 55.8278 15.4027 54.6184 15.4027C53.8331 15.4027 53.1327 15.6035 52.5173 16.0031C51.901 16.4037 51.4135 16.941 51.0531 17.6151C50.6917 18.29 50.5119 19.0272 50.5119 19.8283H50.511Z"/>
</mask>
<path d="M47.2632 19.7963C47.2632 18.4686 47.5816 17.2722 48.2185 16.2083C48.8554 15.1443 49.7355 14.3068 50.8608 13.6949C51.986 13.0838 53.2696 12.7783 54.7133 12.7783C56.1569 12.7783 57.4566 13.0838 58.5496 13.6949C59.6427 14.3068 60.4915 15.1443 61.0971 16.2083C61.7018 17.2731 62.005 18.4686 62.005 19.7963C62.005 21.1241 61.6973 22.3204 61.0819 23.3843C60.4656 24.4492 59.6114 25.292 58.5183 25.9137C57.4253 26.5354 56.1355 26.8463 54.6497 26.8463C53.249 26.8463 51.9914 26.5621 50.8769 25.9928C49.7624 25.4235 48.8813 24.6073 48.2346 23.5424C47.587 22.4785 47.2632 21.2297 47.2632 19.7963V19.7963ZM50.511 19.8283C50.511 20.6507 50.6908 21.3932 51.0522 22.0575C51.4127 22.7218 51.9064 23.2485 52.5325 23.6384C53.1587 24.0282 53.8537 24.2236 54.6184 24.2236C55.8287 24.2236 56.8206 23.8027 57.5952 22.9589C58.3698 22.1161 58.7572 21.0725 58.7572 19.8292C58.7572 18.5858 58.3698 17.5369 57.5952 16.6834C56.8197 15.8299 55.8278 15.4027 54.6184 15.4027C53.8331 15.4027 53.1327 15.6035 52.5173 16.0031C51.901 16.4037 51.4135 16.941 51.0531 17.6151C50.6917 18.29 50.5119 19.0272 50.5119 19.8283H50.511Z" fill="#202123"/>
<path d="M47.2632 19.7963C47.2632 18.4686 47.5816 17.2722 48.2185 16.2083C48.8554 15.1443 49.7355 14.3068 50.8608 13.6949C51.986 13.0838 53.2696 12.7783 54.7133 12.7783C56.1569 12.7783 57.4566 13.0838 58.5496 13.6949C59.6427 14.3068 60.4915 15.1443 61.0971 16.2083C61.7018 17.2731 62.005 18.4686 62.005 19.7963C62.005 21.1241 61.6973 22.3204 61.0819 23.3843C60.4656 24.4492 59.6114 25.292 58.5183 25.9137C57.4253 26.5354 56.1355 26.8463 54.6497 26.8463C53.249 26.8463 51.9914 26.5621 50.8769 25.9928C49.7624 25.4235 48.8813 24.6073 48.2346 23.5424C47.587 22.4785 47.2632 21.2297 47.2632 19.7963V19.7963ZM50.511 19.8283C50.511 20.6507 50.6908 21.3932 51.0522 22.0575C51.4127 22.7218 51.9064 23.2485 52.5325 23.6384C53.1587 24.0282 53.8537 24.2236 54.6184 24.2236C55.8287 24.2236 56.8206 23.8027 57.5952 22.9589C58.3698 22.1161 58.7572 21.0725 58.7572 19.8292C58.7572 18.5858 58.3698 17.5369 57.5952 16.6834C56.8197 15.8299 55.8278 15.4027 54.6184 15.4027C53.8331 15.4027 53.1327 15.6035 52.5173 16.0031C51.901 16.4037 51.4135 16.941 51.0531 17.6151C50.6917 18.29 50.5119 19.0272 50.5119 19.8283H50.511Z" stroke="#202123" stroke-width="0.8" mask="url(#path-2-outside-2_0_1)"/>
<mask id="path-3-outside-3_0_1" maskUnits="userSpaceOnUse" x="63.1061" y="11.7783" width="17" height="16" fill="black">
<rect fill="white" x="63.1061" y="11.7783" width="17" height="16"/>
<path d="M64.1061 19.7963C64.1061 18.4686 64.4245 17.2722 65.0614 16.2083C65.6982 15.1443 66.5784 14.3068 67.7036 13.6949C68.8289 13.0838 70.1125 12.7783 71.5561 12.7783C72.9998 12.7783 74.2995 13.0838 75.3925 13.6949C76.4856 14.3068 77.3344 15.1443 77.94 16.2083C78.5446 17.2731 78.8479 18.4686 78.8479 19.7963C78.8479 21.1241 78.5402 22.3204 77.9248 23.3843C77.3085 24.4492 76.4543 25.292 75.3612 25.9137C74.2682 26.5354 72.9783 26.8463 71.4926 26.8463C70.0919 26.8463 68.8343 26.5621 67.7197 25.9928C66.6052 25.4235 65.7242 24.6073 65.0775 23.5424C64.4299 22.4785 64.1061 21.2297 64.1061 19.7963V19.7963ZM67.3539 19.8283C67.3539 20.6507 67.5337 21.3932 67.8951 22.0575C68.2555 22.7218 68.7493 23.2485 69.3754 23.6384C70.0015 24.0282 70.6965 24.2236 71.4604 24.2236C72.6706 24.2236 73.6626 23.8027 74.4372 22.9589C75.2118 22.1161 75.5991 21.0725 75.5991 19.8292C75.5991 18.5858 75.2118 17.5369 74.4372 16.6834C73.6617 15.8299 72.6697 15.4027 71.4604 15.4027C70.6751 15.4027 69.9747 15.6035 69.3593 16.0031C68.743 16.4037 68.2555 16.941 67.8951 17.6151C67.5337 18.29 67.3539 19.0272 67.3539 19.8283V19.8283Z"/>
</mask>
<path d="M64.1061 19.7963C64.1061 18.4686 64.4245 17.2722 65.0614 16.2083C65.6982 15.1443 66.5784 14.3068 67.7036 13.6949C68.8289 13.0838 70.1125 12.7783 71.5561 12.7783C72.9998 12.7783 74.2995 13.0838 75.3925 13.6949C76.4856 14.3068 77.3344 15.1443 77.94 16.2083C78.5446 17.2731 78.8479 18.4686 78.8479 19.7963C78.8479 21.1241 78.5402 22.3204 77.9248 23.3843C77.3085 24.4492 76.4543 25.292 75.3612 25.9137C74.2682 26.5354 72.9783 26.8463 71.4926 26.8463C70.0919 26.8463 68.8343 26.5621 67.7197 25.9928C66.6052 25.4235 65.7242 24.6073 65.0775 23.5424C64.4299 22.4785 64.1061 21.2297 64.1061 19.7963V19.7963ZM67.3539 19.8283C67.3539 20.6507 67.5337 21.3932 67.8951 22.0575C68.2555 22.7218 68.7493 23.2485 69.3754 23.6384C70.0015 24.0282 70.6965 24.2236 71.4604 24.2236C72.6706 24.2236 73.6626 23.8027 74.4372 22.9589C75.2118 22.1161 75.5991 21.0725 75.5991 19.8292C75.5991 18.5858 75.2118 17.5369 74.4372 16.6834C73.6617 15.8299 72.6697 15.4027 71.4604 15.4027C70.6751 15.4027 69.9747 15.6035 69.3593 16.0031C68.743 16.4037 68.2555 16.941 67.8951 17.6151C67.5337 18.29 67.3539 19.0272 67.3539 19.8283V19.8283Z" fill="#202123"/>
<path d="M64.1061 19.7963C64.1061 18.4686 64.4245 17.2722 65.0614 16.2083C65.6982 15.1443 66.5784 14.3068 67.7036 13.6949C68.8289 13.0838 70.1125 12.7783 71.5561 12.7783C72.9998 12.7783 74.2995 13.0838 75.3925 13.6949C76.4856 14.3068 77.3344 15.1443 77.94 16.2083C78.5446 17.2731 78.8479 18.4686 78.8479 19.7963C78.8479 21.1241 78.5402 22.3204 77.9248 23.3843C77.3085 24.4492 76.4543 25.292 75.3612 25.9137C74.2682 26.5354 72.9783 26.8463 71.4926 26.8463C70.0919 26.8463 68.8343 26.5621 67.7197 25.9928C66.6052 25.4235 65.7242 24.6073 65.0775 23.5424C64.4299 22.4785 64.1061 21.2297 64.1061 19.7963V19.7963ZM67.3539 19.8283C67.3539 20.6507 67.5337 21.3932 67.8951 22.0575C68.2555 22.7218 68.7493 23.2485 69.3754 23.6384C70.0015 24.0282 70.6965 24.2236 71.4604 24.2236C72.6706 24.2236 73.6626 23.8027 74.4372 22.9589C75.2118 22.1161 75.5991 21.0725 75.5991 19.8292C75.5991 18.5858 75.2118 17.5369 74.4372 16.6834C73.6617 15.8299 72.6697 15.4027 71.4604 15.4027C70.6751 15.4027 69.9747 15.6035 69.3593 16.0031C68.743 16.4037 68.2555 16.941 67.8951 17.6151C67.5337 18.29 67.3539 19.0272 67.3539 19.8283V19.8283Z" stroke="#202123" stroke-width="0.8" mask="url(#path-3-outside-3_0_1)"/>
<mask id="path-4-outside-4_0_1" maskUnits="userSpaceOnUse" x="81.0957" y="0.965454" width="5" height="26" fill="black">
<rect fill="white" x="81.0957" y="0.965454" width="5" height="26"/>
<path d="M82.0957 1.96545H85.3114V26.5302H82.0957V1.96545Z"/>
</mask>
<path d="M82.0957 1.96545H85.3114V26.5302H82.0957V1.96545Z" fill="#202123"/>
<path d="M82.0957 1.96545H85.3114V26.5302H82.0957V1.96545Z" stroke="#202123" stroke-width="0.8" mask="url(#path-4-outside-4_0_1)"/>
<mask id="path-5-outside-5_0_1" maskUnits="userSpaceOnUse" x="87.6227" y="6.52954" width="11" height="21" fill="black">
<rect fill="white" x="87.6227" y="6.52954" width="11" height="21"/>
<path d="M90.9787 7.52954H94.2266V13.3468H97.7928V15.8442H94.2266V26.5302H90.9787V15.8442H88.6227V13.3468H90.9787V7.52954Z"/>
</mask>
<path d="M90.9787 7.52954H94.2266V13.3468H97.7928V15.8442H94.2266V26.5302H90.9787V15.8442H88.6227V13.3468H90.9787V7.52954Z" fill="#202123"/>
<path d="M90.9787 7.52954H94.2266V13.3468H97.7928V15.8442H94.2266V26.5302H90.9787V15.8442H88.6227V13.3468H90.9787V7.52954Z" stroke="#202123" stroke-width="0.8" mask="url(#path-5-outside-5_0_1)"/>
<mask id="path-6-outside-6_0_1" maskUnits="userSpaceOnUse" x="96.2406" y="20.7539" width="7.22931" height="7.20635" fill="black">
<rect fill="white" x="96.2406" y="20.7539" width="7.22931" height="7.20635"/>
<path d="M101.625 24.8668C101.868 23.8418 101.229 22.8148 100.197 22.5729C99.1646 22.331 98.1303 22.9658 97.8867 23.9907C97.643 25.0157 98.2823 26.0427 99.3146 26.2846C100.347 26.5265 101.381 25.8917 101.625 24.8668Z"/>
</mask>
<path d="M101.625 24.8668C101.868 23.8418 101.229 22.8148 100.197 22.5729C99.1646 22.331 98.1303 22.9658 97.8867 23.9907C97.643 25.0157 98.2823 26.0427 99.3146 26.2846C100.347 26.5265 101.381 25.8917 101.625 24.8668Z" fill="#FCC72C"/>
<path d="M101.625 24.8668C101.868 23.8418 101.229 22.8148 100.197 22.5729C99.1646 22.331 98.1303 22.9658 97.8867 23.9907C97.643 25.0157 98.2823 26.0427 99.3146 26.2846C100.347 26.5265 101.381 25.8917 101.625 24.8668Z" stroke="#FCC72C" stroke-width="0.8" mask="url(#path-6-outside-6_0_1)"/>
<mask id="path-7-outside-7_0_1" maskUnits="userSpaceOnUse" x="-0.0433998" y="-0.3125" width="23" height="25" fill="black">
<rect fill="white" x="-0.0433998" y="-0.3125" width="23" height="25"/>
<path d="M19.6323 0.6875H16.8746L15.6724 2.85365H0.9566L12.888 23.373L21.44 8.91068H15.0696L19.6323 0.6875ZM17.2208 11.3086L12.9049 18.6073L5.14004 5.25159H14.3433L10.9827 11.3086H17.2226H17.2208Z"/>
</mask>
<path d="M19.6323 0.6875H16.8746L15.6724 2.85365H0.9566L12.888 23.373L21.44 8.91068H15.0696L19.6323 0.6875ZM17.2208 11.3086L12.9049 18.6073L5.14004 5.25159H14.3433L10.9827 11.3086H17.2226H17.2208Z" fill="#FCC72C"/>
<path d="M19.6323 0.6875H16.8746L15.6724 2.85365H0.9566L12.888 23.373L21.44 8.91068H15.0696L19.6323 0.6875ZM17.2208 11.3086L12.9049 18.6073L5.14004 5.25159H14.3433L10.9827 11.3086H17.2226H17.2208Z" stroke="#FCC72C" stroke-width="0.8" mask="url(#path-7-outside-7_0_1)"/>
<mask id="path-8-outside-8_0_1" maskUnits="userSpaceOnUse" x="13.3003" y="1.85364" width="18" height="28" fill="black">
<rect fill="white" x="13.3003" y="1.85364" width="18" height="28"/>
<path d="M14.3003 25.7895L15.6948 28.1875L30.4259 2.85364H20.533L19.2074 5.25158H26.2424L14.3003 25.7895Z"/>
</mask>
<path d="M14.3003 25.7895L15.6948 28.1875L30.4259 2.85364H20.533L19.2074 5.25158H26.2424L14.3003 25.7895Z" fill="#202123"/>
<path d="M14.3003 25.7895L15.6948 28.1875L30.4259 2.85364H20.533L19.2074 5.25158H26.2424L14.3003 25.7895Z" stroke="#202123" stroke-width="0.8" mask="url(#path-8-outside-8_0_1)"/>
</svg>
